<svg width="26" height="26" viewBox="0 0 26 26" fill="none" xmlns="http://www.w3.org/2000/svg">
<path d="M10.1644 1.56006C5.13298 1.56006 1.04001 5.22646 1.04001 9.73178C1.04001 11.8483 1.96016 13.8999 3.57501 15.4132C3.59938 15.4376 3.69282 15.5087 3.69282 15.5087C3.80454 15.6001 3.91626 15.6894 4.01579 15.7626C3.60751 16.9772 2.18157 17.9644 1.52954 18.2001C1.09891 18.3565 0.956727 18.7546 1.1172 18.9557C1.36095 19.2624 2.10438 19.234 2.81938 19.234C5.18173 19.234 8.1636 17.5094 8.1636 17.5094C8.7222 17.6232 9.35391 17.6801 10.0852 17.6801C15.2181 17.6801 19.24 14.1883 19.24 9.73178C19.24 5.22646 15.1694 1.56006 10.1644 1.56006ZM5.72001 6.24006H14.56V7.28006H5.72001V6.24006ZM5.72001 8.84006H14.56V9.88006H5.72001V8.84006ZM20.1683 11.0196C19.9652 12.3155 19.4634 13.514 18.72 14.5601H20.28V15.6001H17.8567C17.2839 16.1932 16.6238 16.7193 15.8925 17.1601H20.28V18.2001H13.5363C12.4597 18.5312 11.3039 18.7201 10.0852 18.7201C9.56313 18.7201 9.08985 18.6916 8.64704 18.6368C9.61391 21.188 12.7075 22.8801 16.705 22.8801C17.3042 22.8801 17.8283 22.8435 18.2955 22.7724C18.3158 22.7683 19.76 24.438 22.8963 24.438C24.6655 24.3852 24.9356 23.853 24.9519 23.6621C24.9945 23.2315 23.1177 23.1076 22.2503 21.7101C22.3945 21.6085 22.5611 21.4887 22.6688 21.4054C24.1252 20.2029 24.9519 18.584 24.9519 16.9062C24.9519 14.3549 23.0445 12.0779 20.1683 11.0196ZM5.72001 11.4401H11.96V12.4801H5.72001V11.4401Z" fill="white"/>
</svg>
