<svg width="24" height="24" viewBox="0 0 24 24" fill="none" xmlns="http://www.w3.org/2000/svg">
<path d="M12.6984 0.771568C12.6085 0.766419 12.512 0.779514 12.4266 0.822193C12.2553 0.907709 12.1893 1.03944 12.1566 1.12126C12.0912 1.28489 12.1059 1.38844 12.1059 1.38844C12.1059 1.41293 12.1078 1.43737 12.1116 1.46157C12.3635 3.09902 12.3232 4.81023 11.7581 6.22688C11.2321 7.54546 10.2505 8.60782 8.56406 9.24563C8.06137 8.38462 7.78968 7.01469 7.78968 6.53438C7.78968 6.38171 7.7119 6.21274 7.61812 6.11907C7.52433 6.0254 7.43304 5.9886 7.36312 5.96532C7.22328 5.91876 7.11374 5.92407 7.11374 5.92407C7.03017 5.92423 6.94809 5.9462 6.87562 5.98782C4.42897 7.38627 2.39999 10.4256 2.39999 13.5703C2.39999 16.1199 3.25272 18.4915 4.89281 20.2266C6.53289 21.9616 8.95663 23.04 12 23.04C17.6573 23.04 21.6 18.5789 21.6 13.635C21.6 7.09382 17.017 2.83959 12.9319 0.829693H12.9309C12.8717 0.800111 12.7884 0.776717 12.6984 0.771568ZM13.0603 1.31532L13.0659 1.38844L13.065 1.39501C13.0611 1.36886 13.0643 1.34141 13.0603 1.31532ZM13.0997 2.06063C16.7918 4.06231 20.64 7.85326 20.64 13.635C20.64 18.0722 17.1561 22.08 12 22.08C9.18064 22.08 7.04454 21.1059 5.59031 19.5675C4.13607 18.0291 3.35999 15.9066 3.35999 13.5703C3.35999 11.0482 4.99322 8.4902 6.91499 7.16157C6.99889 8.0138 7.22508 9.15579 7.89937 10.0753C7.91362 10.0946 7.92928 10.1128 7.94624 10.1297L8.01093 10.1953C8.07321 10.258 8.1516 10.3023 8.23745 10.3233C8.32331 10.3444 8.41329 10.3413 8.49749 10.3144C10.6701 9.62475 11.9934 8.22734 12.6497 6.58219C13.2144 5.16641 13.2553 3.58999 13.0997 2.06063Z" fill="white"/>
</svg>
