<svg width="24" height="24" viewBox="0 0 24 24" fill="none" xmlns="http://www.w3.org/2000/svg">
<path d="M12 23.04C6.34799 23.04 2.39999 19.1462 2.39999 13.57C2.39999 10.6588 4.28255 7.46972 6.87599 5.98748C6.94847 5.9462 7.03055 5.92412 7.11407 5.92412C7.49951 5.92412 7.78943 6.18668 7.78943 6.5342C7.78943 7.1006 8.00831 8.41724 8.52911 9.28844C10.6675 8.49644 12.8846 6.48572 12.1118 1.4606C12.108 1.43612 12.1061 1.41164 12.1061 1.38764C12.1061 1.15532 12.2102 0.952282 12.384 0.844282C12.5472 0.744442 12.7507 0.738202 12.9312 0.827962C14.963 1.8278 21.6 5.70812 21.6 13.6353C21.6 18.9091 17.3832 23.04 12 23.04Z" fill="white"/>
</svg>
