<svg width="26" height="26" viewBox="0 0 26 26" fill="none" xmlns="http://www.w3.org/2000/svg">
<path d="M10.1644 1.56006C5.18173 1.56006 1.04001 5.17975 1.04001 9.73178C1.04001 11.9174 2.01704 13.9019 3.56688 15.3665L3.51813 15.6062C3.16876 16.6299 2.30954 17.2088 1.7997 17.3937C1.50313 17.4993 1.25735 17.6597 1.12126 17.9401C0.987196 18.2183 1.06845 18.6043 1.27157 18.8054C1.74688 19.2827 2.36438 19.236 2.81532 19.2401C4.51141 19.2604 6.51016 18.3707 7.72079 17.7654L7.73501 17.7593L8.14938 17.5196L7.99095 17.4708L8.00923 17.4749C8.6836 17.6313 9.39048 17.6801 10.0852 17.6801C14.4666 17.6801 18.2366 15.0618 19.0694 11.2938V11.2918C19.1811 10.7901 19.24 10.268 19.24 9.73178C19.24 5.18381 15.147 1.56006 10.1644 1.56006ZM10.1644 2.60006C14.6453 2.60006 18.2 5.80943 18.2 9.73178C18.2 10.1929 18.1492 10.6397 18.0538 11.0683C17.3428 14.2858 14.0542 16.6401 10.0852 16.6401C9.44329 16.6401 8.81157 16.5913 8.24688 16.4613L8.01938 16.3943L7.24954 16.8371C6.09985 17.4119 4.11735 18.2163 2.82751 18.2001C2.65079 18.2001 2.63454 18.1655 2.51063 18.1513C3.25001 17.7897 4.10313 17.1337 4.50938 15.9271L4.51751 15.9007L4.70438 15.0232L4.47485 14.8201C2.98595 13.518 2.08001 11.7122 2.08001 9.73178C2.08001 5.8135 5.68345 2.60006 10.1644 2.60006ZM5.72001 6.24006V7.28006H14.56V6.24006H5.72001ZM5.72001 8.84006V9.88006H14.56V8.84006H5.72001ZM20.1683 11.0216C20.1419 11.1882 20.1236 11.3547 20.087 11.5193C20.0464 11.698 19.9936 11.8727 19.9408 12.0494C22.3356 12.9737 23.9119 14.8363 23.9119 16.9062C23.9119 18.391 23.14 19.7783 21.7344 20.8163L21.452 21.0255L21.5394 21.3668C21.8197 22.4413 22.8028 22.9958 23.4833 23.3655C22.4047 23.5118 20.0606 23.268 18.8825 21.8746L18.6855 21.639L18.3849 21.6999C17.9116 21.7933 17.3631 21.8401 16.705 21.8401C13.4713 21.8401 10.8449 20.5868 9.82313 18.7119C9.40063 18.7038 9.00657 18.6754 8.63688 18.6307C9.60173 21.186 12.7034 22.8801 16.705 22.8801C17.3042 22.8801 17.8263 22.8435 18.2955 22.7724C19.4431 23.9343 21.3139 24.438 22.8292 24.438C22.9288 24.438 23.0283 24.436 23.1238 24.4319C24.0033 24.3913 24.5761 24.1882 24.83 23.8287C24.9417 23.6662 24.9803 23.4752 24.9356 23.2883C24.8483 22.9166 24.507 22.7338 24.0338 22.4799C23.5686 22.228 22.9572 21.8969 22.6708 21.4033C24.1272 20.2008 24.9519 18.584 24.9519 16.9062C24.9519 14.3549 23.0445 12.0779 20.1683 11.0216ZM5.72001 11.4401V12.4801H11.96V11.4401H5.72001ZM18.7281 14.5601C18.4681 14.9257 18.1817 15.2751 17.8669 15.6001H20.28V14.5601H18.7281ZM15.9067 17.1601C15.1897 17.5907 14.4036 17.9421 13.5688 18.2001H20.28V17.1601H15.9067Z" fill="white"/>
</svg>
